<svg width="100" height="100" viewBox="0 0 100 100" fill="none" xmlns="http://www.w3.org/2000/svg">
<g clip-path="url(#clip0_14_408)">
<path d="M12.4362 0.861206H65.0064L92.8708 28.6174V93.6705C92.8708 97.0889 90.099 99.8577 86.6836 99.8577H12.4362C9.02077 99.8577 6.24902 97.0889 6.24902 93.6705V7.04843C6.24902 3.63008 9.02109 0.861206 12.4362 0.861206Z" fill="#E2574C"/>
<path d="M92.7818 28.7039H71.216C67.8006 28.7039 65.0288 25.9321 65.0288 22.5166V0.922974L92.7818 28.7039Z" fill="#B53629"/>
<path d="M69.6626 47.77C70.6991 47.77 71.2064 46.8667 71.2064 45.9912C71.2064 45.0847 70.6773 44.2092 69.6626 44.2092H63.7599C62.606 44.2092 61.9626 45.165 61.9626 46.2201V60.7261C61.9626 62.0193 62.6988 62.737 63.6949 62.737C64.685 62.737 65.4244 62.0193 65.4244 60.7261V56.7447H68.9945C70.1021 56.7447 70.6558 55.8382 70.6558 54.938C70.6558 54.0565 70.1021 53.1807 68.9945 53.1807H65.4244V47.77H69.6626ZM49.7117 44.2092H45.3929C44.2203 44.2092 43.3881 45.0136 43.3881 46.2076V60.7386C43.3881 62.2203 44.5853 62.6845 45.4422 62.6845H49.9745C55.3387 62.6845 58.8809 59.1547 58.8809 53.7066C58.8781 47.9464 55.5433 44.2092 49.7117 44.2092ZM49.9191 59.1022H47.2863V47.7918H49.6592C53.251 47.7918 54.8131 50.2018 54.8131 53.5274C54.8131 56.6397 53.2786 59.1022 49.9191 59.1022ZM34.0981 44.2092H29.8197C28.61 44.2092 27.9355 45.0072 27.9355 46.2201V60.7261C27.9355 62.0193 28.7089 62.737 29.7483 62.737C30.7876 62.737 31.561 62.0193 31.561 60.7261V56.4908H34.2431C37.5533 56.4908 40.285 54.1458 40.285 50.3747C40.2853 46.6842 37.6496 44.2092 34.0981 44.2092ZM34.0271 53.0882H31.5613V47.6154H34.0271C35.5491 47.6154 36.5174 48.8033 36.5174 50.3532C36.5142 51.9003 35.5491 53.0882 34.0271 53.0882Z" fill="white"/>
</g>
<defs>
<clipPath id="clip0_14_408">
<rect width="98.9965" height="98.9965" fill="white" transform="translate(0.0620117 0.861237)"/>
</clipPath>
</defs>
</svg>
